<?xml version="1.0" standalone="no"?>
<!DOCTYPE svg PUBLIC "-//W3C//DTD SVG 20010904//EN"
 "http://www.w3.org/TR/2001/REC-SVG-20010904/DTD/svg10.dtd">
<svg version="1.0" xmlns="http://www.w3.org/2000/svg"
 width="322.000000pt" height="344.000000pt" viewBox="0 0 322.000000 344.000000"
 preserveAspectRatio="xMidYMid meet">

<g transform="translate(0.000000,344.000000) scale(0.100000,-0.100000)"
fill="#000000" stroke="none">
<path d="M1087 2672 l-87 -3 2 -887 3 -886 264 -123 c145 -68 266 -121 268
-119 3 2 5 775 3 1342 l0 150 -136 98 c-74 54 -138 105 -141 113 -18 46 95 40
397 -20 l215 -42 3 -683 c1 -470 5 -682 13 -682 36 0 132 63 202 131 84 83
134 172 156 277 37 175 -20 362 -150 495 l-67 67 29 53 c128 237 34 537 -208
664 -32 17 -80 36 -108 42 -48 11 -470 19 -658 13z"/>
<path d="M1422 2344 c4 -3 74 -30 155 -59 l148 -53 3 -703 2 -704 33 -23 c18
-12 36 -22 40 -22 4 0 6 332 5 737 l-3 737 -165 41 c-91 23 -178 45 -195 49
-16 4 -27 4 -23 0z"/>
<path d="M1385 2315 c11 -9 66 -44 123 -77 l102 -61 0 -712 0 -713 25 -16 c13
-9 27 -16 30 -16 3 0 5 334 5 743 l0 742 -142 60 c-164 70 -170 72 -143 50z"/>
</g>
</svg>
